<?xml version="1.0" encoding="UTF-8" standalone="no"?>
<!-- Created with Inkscape (http://www.inkscape.org/) -->

<svg
   xmlns:dc="http://purl.org/dc/elements/1.1/"
   xmlns:cc="http://creativecommons.org/ns#"
   xmlns:rdf="http://www.w3.org/1999/02/22-rdf-syntax-ns#"
   xmlns:svg="http://www.w3.org/2000/svg"
   xmlns="http://www.w3.org/2000/svg"
   xmlns:sodipodi="http://sodipodi.sourceforge.net/DTD/sodipodi-0.dtd"
   xmlns:inkscape="http://www.inkscape.org/namespaces/inkscape"
   width="200"
   height="200"
   viewBox="0 0 52.916665 52.916668"
   version="1.1"
   id="svg8"
   inkscape:version="0.92.5 (2060ec1f9f, 2020-04-08)"
   sodipodi:docname="icon_more_hover.svg"
   inkscape:export-filename="/home/mieniu/Programowanie/htdocs/beTogether/img/more_icon.png"
   inkscape:export-xdpi="96"
   inkscape:export-ydpi="96">
  <defs
     id="defs2" />
  <sodipodi:namedview
     id="base"
     pagecolor="#ffffff"
     bordercolor="#666666"
     borderopacity="1.0"
     inkscape:pageopacity="0"
     inkscape:pageshadow="2"
     inkscape:zoom="2.8"
     inkscape:cx="163.96892"
     inkscape:cy="100.9214"
     inkscape:document-units="px"
     inkscape:current-layer="layer1"
     showgrid="false"
     units="px"
     inkscape:window-width="1920"
     inkscape:window-height="1015"
     inkscape:window-x="0"
     inkscape:window-y="0"
     inkscape:window-maximized="1"
     inkscape:snap-center="true"
     inkscape:snap-object-midpoints="true"
     inkscape:pagecheckerboard="false" />
  <metadata
     id="metadata5">
    <rdf:RDF>
      <cc:Work
         rdf:about="">
        <dc:format>image/svg+xml</dc:format>
        <dc:type
           rdf:resource="http://purl.org/dc/dcmitype/StillImage" />
        <dc:title />
      </cc:Work>
    </rdf:RDF>
  </metadata>
  <g
     inkscape:label="Layer 1"
     inkscape:groupmode="layer"
     id="layer1"
     transform="translate(0,-244.08332)">
    <path
       style="opacity:1;fill:#b80107;fill-opacity:1;stroke:#c33d41;stroke-width:9.5;stroke-miterlimit:4;stroke-dasharray:none;stroke-opacity:1"
       d="M 38.474609 9.75 C 22.561285 9.75 9.75 22.561285 9.75 38.474609 L 9.75 161.52539 C 9.75 177.43872 22.561285 190.25 38.474609 190.25 L 161.52539 190.25 C 177.43872 190.25 190.25 177.43872 190.25 161.52539 L 190.25 38.474609 C 190.25 22.561285 177.43872 9.75 161.52539 9.75 L 38.474609 9.75 z M 59.736328 110.10156 A 15.041724 15.041724 0 0 1 74.777344 125.14258 A 15.041724 15.041724 0 0 1 59.736328 140.18555 A 15.041724 15.041724 0 0 1 44.693359 125.14258 A 15.041724 15.041724 0 0 1 59.736328 110.10156 z M 100 110.10156 A 15.041724 15.041724 0 0 1 115.04102 125.14258 A 15.041724 15.041724 0 0 1 100 140.18555 A 15.041724 15.041724 0 0 1 84.958984 125.14258 A 15.041724 15.041724 0 0 1 100 110.10156 z M 140.26367 110.10156 A 15.041724 15.041724 0 0 1 155.30664 125.14258 A 15.041724 15.041724 0 0 1 140.26367 140.18555 A 15.041724 15.041724 0 0 1 125.22266 125.14258 A 15.041724 15.041724 0 0 1 140.26367 110.10156 z "
       transform="matrix(0.26458333,0,0,0.26458333,0,244.08332)"
       id="rect815"
       inkscape:export-xdpi="96"
       inkscape:export-ydpi="96" />
  </g>
</svg>
