<?xml version="1.0" encoding="UTF-8" standalone="no"?>
<!-- Created with Inkscape (http://www.inkscape.org/) -->

<svg
   xmlns:dc="http://purl.org/dc/elements/1.1/"
   xmlns:cc="http://creativecommons.org/ns#"
   xmlns:rdf="http://www.w3.org/1999/02/22-rdf-syntax-ns#"
   xmlns:svg="http://www.w3.org/2000/svg"
   xmlns="http://www.w3.org/2000/svg"
   xmlns:sodipodi="http://sodipodi.sourceforge.net/DTD/sodipodi-0.dtd"
   xmlns:inkscape="http://www.inkscape.org/namespaces/inkscape"
   width="19mm"
   height="4.5mm"
   viewBox="0 0 19 4.5000001"
   version="1.1"
   id="svg4613"
   inkscape:version="0.92.5 (2060ec1f9f, 2020-04-08)"
   sodipodi:docname="logo.svg"
   inkscape:export-filename="/home/mieniu/Programowanie/htdocs/beTogether/img/logo.png"
   inkscape:export-xdpi="496.38168"
   inkscape:export-ydpi="496.38168">
  <defs
     id="defs4607" />
  <sodipodi:namedview
     id="base"
     pagecolor="#ffffff"
     bordercolor="#666666"
     borderopacity="1.0"
     inkscape:pageopacity="0.0"
     inkscape:pageshadow="2"
     inkscape:zoom="11.313709"
     inkscape:cx="44.604892"
     inkscape:cy="4.5104371"
     inkscape:document-units="px"
     inkscape:current-layer="g5232"
     showgrid="true"
     units="mm"
     inkscape:window-width="1920"
     inkscape:window-height="1015"
     inkscape:window-x="0"
     inkscape:window-y="0"
     inkscape:window-maximized="1">
    <inkscape:grid
       type="xygrid"
       id="grid4615" />
  </sodipodi:namedview>
  <metadata
     id="metadata4610">
    <rdf:RDF>
      <cc:Work
         rdf:about="">
        <dc:format>image/svg+xml</dc:format>
        <dc:type
           rdf:resource="http://purl.org/dc/dcmitype/StillImage" />
        <dc:title></dc:title>
      </cc:Work>
    </rdf:RDF>
  </metadata>
  <g
     inkscape:label="Layer 1"
     inkscape:groupmode="layer"
     id="layer1"
     transform="translate(0,-292.49998)">
    <g
       id="g4592"
       transform="matrix(1.1912836,0,0,1.1912836,-0.5612009,-57.01662)">
      <g
         id="g5224"
         transform="matrix(0.51833919,0,0,0.51833919,0.42245126,138.99514)">
        <g
           id="g5232">
          <g
             id="text3725"
             style="font-style:normal;font-weight:normal;font-size:8.48634148px;line-height:1.25;font-family:sans-serif;letter-spacing:0px;word-spacing:0px;fill:#b80107;fill-opacity:1;stroke:none;stroke-width:0.21215852"
             transform="matrix(0.8871837,0,0,1.3620911,-0.837118,-21.188127)"
             aria-label="T">
            <path
               sodipodi:nodetypes="ccccccccc"
               inkscape:connector-curvature="0"
               id="path4577"
               d="m 1.5323043,234.56146 0.9259584,0.62916 h 5.6032777 v 4.24297 h 0.8417969 v -4.24297 h 5.1861747 l 0.965939,-0.62916 z"
               style="fill:#b80107;fill-opacity:1;stroke-width:0.21215852" />
          </g>
          <text
             xml:space="preserve"
             style="font-style:normal;font-weight:normal;font-size:5.68983126px;line-height:1.25;font-family:sans-serif;letter-spacing:0px;word-spacing:0px;fill:#b80107;fill-opacity:1;stroke:none;stroke-width:0.14224578"
             x="6.9407706"
             y="304.52539"
             id="text4647"
             inkscape:export-xdpi="496.38168"
             inkscape:export-ydpi="496.38168"><tspan
               sodipodi:role="line"
               id="tspan4645"
               x="6.9407706"
               y="304.52539"
               style="font-style:normal;font-variant:normal;font-weight:normal;font-stretch:normal;font-family:ubuntu;-inkscape-font-specification:ubuntu;letter-spacing:-0.31828186px;fill:#b80107;fill-opacity:1;stroke-width:0.14224578">OGETHER</tspan></text>
          <g
             aria-label="be"
             transform="matrix(0.87426335,0,0,1.1438201,-0.42848225,1.2854451)"
             style="font-style:normal;font-weight:normal;font-size:7.5909791px;line-height:1.25;font-family:sans-serif;letter-spacing:0px;word-spacing:0px;fill:#c33d41;fill-opacity:1;stroke:none;stroke-width:0.18977448"
             id="text3721">
            <path
               d="m 1.5931661,261.70952 c 0.07591,-0.0455 0.1847138,-0.0911 0.3264121,-0.13663 0.1467589,-0.0506 0.3086998,-0.0759 0.4858227,-0.0759 0.2378507,0 0.4503981,0.0455 0.6376422,0.13663 0.1872441,0.0911 0.3441244,0.21761 0.4706407,0.37955 0.131577,0.16194 0.2302597,0.35678 0.2960482,0.58451 0.070849,0.22267 0.1062737,0.47064 0.1062737,0.74391 0,0.2834 -0.040485,0.53896 -0.1214557,0.76669 -0.08097,0.22773 -0.1948351,0.42257 -0.341594,0.58451 -0.1467589,0.15688 -0.3238818,0.27834 -0.5313686,0.36437 -0.2074867,0.086 -0.4377464,0.12904 -0.690779,0.12904 -0.2783359,0 -0.5263079,-0.0202 -0.743916,-0.0607 -0.2176081,-0.0405 -0.2677717,-0.0809 -0.3993486,-0.12145 v -4.20608 l 0.5056223,-0.20658 z m 0,2.84662 c 0.096152,0.0253 0.1923048,0.0456 0.2884572,0.0607 0.096152,0.0101 0.1872442,0.0152 0.2732753,0.0152 0.349185,0 0.6224602,-0.10627 0.8198257,-0.31882 0.1973655,-0.21761 0.2960482,-0.54149 0.2960482,-0.97165 0,-0.18218 -0.017712,-0.35171 -0.053137,-0.50859 -0.035425,-0.16194 -0.091092,-0.29858 -0.1670015,-0.40991 -0.07591,-0.1164 -0.1745925,-0.20749 -0.2960482,-0.27328 -0.116395,-0.0658 -0.2580933,-0.0987 -0.4250948,-0.0987 -0.1467589,0 -0.2884572,0.0304 -0.4250949,0.0911 -0.1366376,0.0557 -0.240381,0.11639 -0.3112301,0.18218 z"
               style="font-style:normal;font-variant:normal;font-weight:normal;font-stretch:normal;line-height:0;font-family:'Ubuntu Mono';-inkscape-font-specification:'Ubuntu Mono';letter-spacing:-0.26726153px;fill:#c33d41;fill-opacity:1;stroke-width:0.18977448"
               id="path5253"
               inkscape:connector-curvature="0"
               sodipodi:nodetypes="ccscccscccssccccccscscccsccc" />
            <path
               d="m 5.9184324,261.49698 q 0.713552,0 1.100692,0.44786 0.3871399,0.44028 0.3871399,1.34361 v 0.22014 h -2.520205 q 0.037955,0.54655 0.356776,0.835 0.3264121,0.28087 0.9109175,0.28087 0.334003,0 0.5693234,-0.0531 0.2353203,-0.0531 0.356776,-0.11386 l 0.083501,0.53137 q -0.1138647,0.0607 -0.4099129,0.12904 -0.2960482,0.0683 -0.6680061,0.0683 -0.4554588,0 -0.8046438,-0.13664 -0.3415941,-0.14422 -0.5693235,-0.38714 -0.2277293,-0.24291 -0.341594,-0.57691 -0.1138647,-0.34159 -0.1138647,-0.73632 0,-0.47065 0.1442286,-0.81983 0.1442286,-0.34919 0.3795489,-0.57691 0.2353204,-0.22773 0.5313686,-0.3416 0.2960482,-0.11386 0.6072783,-0.11386 z m 0.8501897,1.50301 q 0,-0.44787 -0.2353204,-0.70596 -0.2353203,-0.26568 -0.6224603,-0.26568 -0.2201384,0 -0.4023219,0.0835 -0.1745925,0.0835 -0.3036391,0.22013 -0.1290467,0.13664 -0.2049565,0.31123 -0.07591,0.1746 -0.098683,0.35678 z"
               style="font-style:normal;font-variant:normal;font-weight:normal;font-stretch:normal;line-height:0;font-family:'Ubuntu Mono';-inkscape-font-specification:'Ubuntu Mono';letter-spacing:-0.26726153px;fill:#c33d41;fill-opacity:1;stroke-width:0.18977448"
               id="path5255"
               inkscape:connector-curvature="0" />
          </g>
        </g>
      </g>
    </g>
  </g>
</svg>
